<mxfile host="app.diagrams.net" agent="Mozilla/5.0 (Macintosh; Intel Mac OS X 10_15_7) AppleWebKit/537.36 (KHTML, like Gecko) Chrome/128.0.0.0 Safari/537.36" version="24.7.16">
  <diagram id="QxWAVT24oZoTvNu8gBAk" name="Page-1">
    <mxGraphModel grid="1" page="1" gridSize="10" guides="1" tooltips="1" connect="1" arrows="1" fold="1" pageScale="1" pageWidth="1920" pageHeight="1200" math="0" shadow="0">
      <root>
        <mxCell id="0" />
        <mxCell id="1" parent="0" />
        <mxCell id="wGj9Bdo_V_vRDQR6ckQa-155" value="" style="rounded=0;whiteSpace=wrap;html=1;fillColor=#dae8fc;gradientColor=#7ea6e0;strokeColor=none;" vertex="1" parent="1">
          <mxGeometry width="1920" height="1200" as="geometry" />
        </mxCell>
        <mxCell id="wGj9Bdo_V_vRDQR6ckQa-1" value="" style="group;rotation=-127;" vertex="1" connectable="0" parent="1">
          <mxGeometry x="180.00252531694173" y="220" width="266.62" height="78.37" as="geometry" />
        </mxCell>
        <mxCell id="wGj9Bdo_V_vRDQR6ckQa-2" value="" style="shape=cylinder3;whiteSpace=wrap;html=1;boundedLbl=1;backgroundOutline=1;size=15;strokeColor=default;strokeWidth=2;fillColor=#a0522d;verticalAlign=top;rotation=-37;fontColor=#ffffff;" vertex="1" parent="wGj9Bdo_V_vRDQR6ckQa-1">
          <mxGeometry x="94" y="-94" width="77.8" height="266.62" as="geometry" />
        </mxCell>
        <mxCell id="wGj9Bdo_V_vRDQR6ckQa-3" value="" style="ellipse;whiteSpace=wrap;html=1;strokeColor=default;strokeWidth=2;fillColor=#E2B685;verticalAlign=top;fontColor=#000000;rotation=-127;" vertex="1" parent="wGj9Bdo_V_vRDQR6ckQa-1">
          <mxGeometry x="47" y="-94" width="30" height="78.37" as="geometry" />
        </mxCell>
        <mxCell id="wGj9Bdo_V_vRDQR6ckQa-4" value="" style="endArrow=none;html=1;rounded=0;strokeWidth=1;" edge="1" parent="wGj9Bdo_V_vRDQR6ckQa-1">
          <mxGeometry width="50" height="50" relative="1" as="geometry">
            <mxPoint x="194" y="157" as="sourcePoint" />
            <mxPoint x="164" y="117" as="targetPoint" />
          </mxGeometry>
        </mxCell>
        <mxCell id="wGj9Bdo_V_vRDQR6ckQa-5" value="" style="endArrow=none;html=1;rounded=0;strokeWidth=1;" edge="1" parent="wGj9Bdo_V_vRDQR6ckQa-1">
          <mxGeometry width="50" height="50" relative="1" as="geometry">
            <mxPoint x="132" y="-9" as="sourcePoint" />
            <mxPoint x="91" y="-63" as="targetPoint" />
          </mxGeometry>
        </mxCell>
        <mxCell id="wGj9Bdo_V_vRDQR6ckQa-6" value="" style="endArrow=none;html=1;rounded=0;strokeWidth=1;exitX=0.865;exitY=0.654;exitDx=0;exitDy=0;exitPerimeter=0;" edge="1" parent="wGj9Bdo_V_vRDQR6ckQa-1" source="wGj9Bdo_V_vRDQR6ckQa-2">
          <mxGeometry width="50" height="50" relative="1" as="geometry">
            <mxPoint x="170" y="42" as="sourcePoint" />
            <mxPoint x="141" y="3" as="targetPoint" />
          </mxGeometry>
        </mxCell>
        <mxCell id="wGj9Bdo_V_vRDQR6ckQa-7" value="" style="endArrow=none;html=1;rounded=0;strokeWidth=1;" edge="1" parent="wGj9Bdo_V_vRDQR6ckQa-1">
          <mxGeometry width="50" height="50" relative="1" as="geometry">
            <mxPoint x="200" y="115" as="sourcePoint" />
            <mxPoint x="153" y="53" as="targetPoint" />
          </mxGeometry>
        </mxCell>
        <mxCell id="wGj9Bdo_V_vRDQR6ckQa-8" value="" style="endArrow=none;html=1;rounded=0;strokeWidth=1;" edge="1" parent="wGj9Bdo_V_vRDQR6ckQa-1">
          <mxGeometry width="50" height="50" relative="1" as="geometry">
            <mxPoint x="107" y="-13" as="sourcePoint" />
            <mxPoint x="81" y="-48" as="targetPoint" />
          </mxGeometry>
        </mxCell>
        <mxCell id="wGj9Bdo_V_vRDQR6ckQa-9" value="" style="endArrow=none;html=1;rounded=0;strokeWidth=1;" edge="1" parent="wGj9Bdo_V_vRDQR6ckQa-1">
          <mxGeometry width="50" height="50" relative="1" as="geometry">
            <mxPoint x="101" y="27" as="sourcePoint" />
            <mxPoint x="58" y="-30" as="targetPoint" />
          </mxGeometry>
        </mxCell>
        <mxCell id="wGj9Bdo_V_vRDQR6ckQa-10" value="" style="endArrow=none;html=1;rounded=0;strokeWidth=1;" edge="1" parent="wGj9Bdo_V_vRDQR6ckQa-1">
          <mxGeometry width="50" height="50" relative="1" as="geometry">
            <mxPoint x="130" y="55" as="sourcePoint" />
            <mxPoint x="118" y="39" as="targetPoint" />
          </mxGeometry>
        </mxCell>
        <mxCell id="wGj9Bdo_V_vRDQR6ckQa-11" value="" style="endArrow=none;html=1;rounded=0;strokeWidth=1;entryX=0.608;entryY=0.916;entryDx=0;entryDy=0;entryPerimeter=0;" edge="1" parent="wGj9Bdo_V_vRDQR6ckQa-1" target="wGj9Bdo_V_vRDQR6ckQa-2">
          <mxGeometry width="50" height="50" relative="1" as="geometry">
            <mxPoint x="218" y="139" as="sourcePoint" />
            <mxPoint x="212" y="131" as="targetPoint" />
          </mxGeometry>
        </mxCell>
        <mxCell id="wGj9Bdo_V_vRDQR6ckQa-12" value="" style="endArrow=none;html=1;rounded=0;strokeWidth=1;exitX=0.865;exitY=0.654;exitDx=0;exitDy=0;exitPerimeter=0;" edge="1" parent="wGj9Bdo_V_vRDQR6ckQa-1">
          <mxGeometry width="50" height="50" relative="1" as="geometry">
            <mxPoint x="229" y="118" as="sourcePoint" />
            <mxPoint x="189" y="67" as="targetPoint" />
          </mxGeometry>
        </mxCell>
        <mxCell id="wGj9Bdo_V_vRDQR6ckQa-13" value="" style="endArrow=none;html=1;rounded=0;strokeWidth=1;" edge="1" parent="wGj9Bdo_V_vRDQR6ckQa-1">
          <mxGeometry width="50" height="50" relative="1" as="geometry">
            <mxPoint x="183" y="161" as="sourcePoint" />
            <mxPoint x="161" y="132" as="targetPoint" />
          </mxGeometry>
        </mxCell>
        <mxCell id="wGj9Bdo_V_vRDQR6ckQa-14" value="" style="ellipse;whiteSpace=wrap;html=1;strokeColor=default;strokeWidth=1;fillColor=none;gradientColor=none;verticalAlign=top;rotation=-37;" vertex="1" parent="wGj9Bdo_V_vRDQR6ckQa-1">
          <mxGeometry x="32" y="-66" width="60" height="20" as="geometry" />
        </mxCell>
        <mxCell id="wGj9Bdo_V_vRDQR6ckQa-15" value="" style="ellipse;whiteSpace=wrap;html=1;strokeColor=default;strokeWidth=1;fillColor=none;gradientColor=none;verticalAlign=top;rotation=-37;" vertex="1" parent="wGj9Bdo_V_vRDQR6ckQa-1">
          <mxGeometry x="42" y="-64" width="37.38" height="12.46" as="geometry" />
        </mxCell>
        <mxCell id="wGj9Bdo_V_vRDQR6ckQa-16" value="" style="group;rotation=-60;" vertex="1" connectable="0" parent="1">
          <mxGeometry x="290.0025253169417" y="780" width="266.62" height="78.37" as="geometry" />
        </mxCell>
        <mxCell id="wGj9Bdo_V_vRDQR6ckQa-17" value="" style="shape=cylinder3;whiteSpace=wrap;html=1;boundedLbl=1;backgroundOutline=1;size=15;strokeColor=default;strokeWidth=2;fillColor=#a0522d;verticalAlign=top;rotation=30;fontColor=#ffffff;" vertex="1" parent="wGj9Bdo_V_vRDQR6ckQa-16">
          <mxGeometry x="94" y="-94" width="77.8" height="266.62" as="geometry" />
        </mxCell>
        <mxCell id="wGj9Bdo_V_vRDQR6ckQa-18" value="" style="ellipse;whiteSpace=wrap;html=1;strokeColor=default;strokeWidth=2;fillColor=#E2B685;verticalAlign=top;fontColor=#000000;rotation=-60;" vertex="1" parent="wGj9Bdo_V_vRDQR6ckQa-16">
          <mxGeometry x="177" y="-102" width="30" height="78.37" as="geometry" />
        </mxCell>
        <mxCell id="wGj9Bdo_V_vRDQR6ckQa-19" value="" style="endArrow=none;html=1;rounded=0;strokeWidth=1;" edge="1" parent="wGj9Bdo_V_vRDQR6ckQa-16">
          <mxGeometry width="50" height="50" relative="1" as="geometry">
            <mxPoint x="49" y="141" as="sourcePoint" />
            <mxPoint x="74" y="98" as="targetPoint" />
          </mxGeometry>
        </mxCell>
        <mxCell id="wGj9Bdo_V_vRDQR6ckQa-20" value="" style="endArrow=none;html=1;rounded=0;strokeWidth=1;" edge="1" parent="wGj9Bdo_V_vRDQR6ckQa-16">
          <mxGeometry width="50" height="50" relative="1" as="geometry">
            <mxPoint x="177" y="19" as="sourcePoint" />
            <mxPoint x="211" y="-40" as="targetPoint" />
          </mxGeometry>
        </mxCell>
        <mxCell id="wGj9Bdo_V_vRDQR6ckQa-21" value="" style="endArrow=none;html=1;rounded=0;strokeWidth=1;exitX=0.865;exitY=0.654;exitDx=0;exitDy=0;exitPerimeter=0;" edge="1" parent="wGj9Bdo_V_vRDQR6ckQa-16" source="wGj9Bdo_V_vRDQR6ckQa-17">
          <mxGeometry width="50" height="50" relative="1" as="geometry">
            <mxPoint x="145" y="74" as="sourcePoint" />
            <mxPoint x="169" y="32" as="targetPoint" />
          </mxGeometry>
        </mxCell>
        <mxCell id="wGj9Bdo_V_vRDQR6ckQa-22" value="" style="endArrow=none;html=1;rounded=0;strokeWidth=1;" edge="1" parent="wGj9Bdo_V_vRDQR6ckQa-16">
          <mxGeometry width="50" height="50" relative="1" as="geometry">
            <mxPoint x="90" y="130" as="sourcePoint" />
            <mxPoint x="129" y="63" as="targetPoint" />
          </mxGeometry>
        </mxCell>
        <mxCell id="wGj9Bdo_V_vRDQR6ckQa-23" value="" style="endArrow=none;html=1;rounded=0;strokeWidth=1;" edge="1" parent="wGj9Bdo_V_vRDQR6ckQa-16">
          <mxGeometry width="50" height="50" relative="1" as="geometry">
            <mxPoint x="171" y="-5" as="sourcePoint" />
            <mxPoint x="193" y="-43" as="targetPoint" />
          </mxGeometry>
        </mxCell>
        <mxCell id="wGj9Bdo_V_vRDQR6ckQa-24" value="" style="endArrow=none;html=1;rounded=0;strokeWidth=1;" edge="1" parent="wGj9Bdo_V_vRDQR6ckQa-16">
          <mxGeometry width="50" height="50" relative="1" as="geometry">
            <mxPoint x="132" y="5" as="sourcePoint" />
            <mxPoint x="168" y="-57" as="targetPoint" />
          </mxGeometry>
        </mxCell>
        <mxCell id="wGj9Bdo_V_vRDQR6ckQa-25" value="" style="endArrow=none;html=1;rounded=0;strokeWidth=1;" edge="1" parent="wGj9Bdo_V_vRDQR6ckQa-16">
          <mxGeometry width="50" height="50" relative="1" as="geometry">
            <mxPoint x="117" y="42" as="sourcePoint" />
            <mxPoint x="127" y="25" as="targetPoint" />
          </mxGeometry>
        </mxCell>
        <mxCell id="wGj9Bdo_V_vRDQR6ckQa-26" value="" style="endArrow=none;html=1;rounded=0;strokeWidth=1;entryX=0.608;entryY=0.916;entryDx=0;entryDy=0;entryPerimeter=0;" edge="1" parent="wGj9Bdo_V_vRDQR6ckQa-16" target="wGj9Bdo_V_vRDQR6ckQa-17">
          <mxGeometry width="50" height="50" relative="1" as="geometry">
            <mxPoint x="75" y="156" as="sourcePoint" />
            <mxPoint x="80" y="148" as="targetPoint" />
          </mxGeometry>
        </mxCell>
        <mxCell id="wGj9Bdo_V_vRDQR6ckQa-27" value="" style="endArrow=none;html=1;rounded=0;strokeWidth=1;exitX=0.865;exitY=0.654;exitDx=0;exitDy=0;exitPerimeter=0;" edge="1" parent="wGj9Bdo_V_vRDQR6ckQa-16">
          <mxGeometry width="50" height="50" relative="1" as="geometry">
            <mxPoint x="98" y="158" as="sourcePoint" />
            <mxPoint x="129" y="101" as="targetPoint" />
          </mxGeometry>
        </mxCell>
        <mxCell id="wGj9Bdo_V_vRDQR6ckQa-28" value="" style="endArrow=none;html=1;rounded=0;strokeWidth=1;" edge="1" parent="wGj9Bdo_V_vRDQR6ckQa-16">
          <mxGeometry width="50" height="50" relative="1" as="geometry">
            <mxPoint x="41" y="132" as="sourcePoint" />
            <mxPoint x="59" y="101" as="targetPoint" />
          </mxGeometry>
        </mxCell>
        <mxCell id="wGj9Bdo_V_vRDQR6ckQa-29" value="" style="ellipse;whiteSpace=wrap;html=1;strokeColor=default;strokeWidth=1;fillColor=none;gradientColor=none;verticalAlign=top;rotation=30;" vertex="1" parent="wGj9Bdo_V_vRDQR6ckQa-16">
          <mxGeometry x="164" y="-74" width="60" height="20" as="geometry" />
        </mxCell>
        <mxCell id="wGj9Bdo_V_vRDQR6ckQa-30" value="" style="ellipse;whiteSpace=wrap;html=1;strokeColor=default;strokeWidth=1;fillColor=none;gradientColor=none;verticalAlign=top;rotation=30;" vertex="1" parent="wGj9Bdo_V_vRDQR6ckQa-16">
          <mxGeometry x="175" y="-72" width="37.38" height="12.46" as="geometry" />
        </mxCell>
        <mxCell id="wGj9Bdo_V_vRDQR6ckQa-32" value="" style="group;rotation=22;" vertex="1" connectable="0" parent="1">
          <mxGeometry x="1240.0025253169417" y="840" width="266.62" height="78.37" as="geometry" />
        </mxCell>
        <mxCell id="wGj9Bdo_V_vRDQR6ckQa-33" value="" style="shape=cylinder3;whiteSpace=wrap;html=1;boundedLbl=1;backgroundOutline=1;size=15;strokeColor=default;strokeWidth=2;fillColor=#a0522d;verticalAlign=top;rotation=112;fontColor=#ffffff;" vertex="1" parent="wGj9Bdo_V_vRDQR6ckQa-32">
          <mxGeometry x="95" y="-94" width="77.8" height="266.62" as="geometry" />
        </mxCell>
        <mxCell id="wGj9Bdo_V_vRDQR6ckQa-34" value="" style="ellipse;whiteSpace=wrap;html=1;strokeColor=default;strokeWidth=2;fillColor=#E2B685;verticalAlign=top;fontColor=#000000;rotation=22;" vertex="1" parent="wGj9Bdo_V_vRDQR6ckQa-32">
          <mxGeometry x="228" y="44" width="30" height="78.37" as="geometry" />
        </mxCell>
        <mxCell id="wGj9Bdo_V_vRDQR6ckQa-35" value="" style="endArrow=none;html=1;rounded=0;strokeWidth=1;" edge="1" parent="wGj9Bdo_V_vRDQR6ckQa-32">
          <mxGeometry width="50" height="50" relative="1" as="geometry">
            <mxPoint x="21" y="-31" as="sourcePoint" />
            <mxPoint x="67" y="-12" as="targetPoint" />
          </mxGeometry>
        </mxCell>
        <mxCell id="wGj9Bdo_V_vRDQR6ckQa-36" value="" style="endArrow=none;html=1;rounded=0;strokeWidth=1;" edge="1" parent="wGj9Bdo_V_vRDQR6ckQa-32">
          <mxGeometry width="50" height="50" relative="1" as="geometry">
            <mxPoint x="159" y="80" as="sourcePoint" />
            <mxPoint x="222" y="105" as="targetPoint" />
          </mxGeometry>
        </mxCell>
        <mxCell id="wGj9Bdo_V_vRDQR6ckQa-37" value="" style="endArrow=none;html=1;rounded=0;strokeWidth=1;exitX=0.865;exitY=0.654;exitDx=0;exitDy=0;exitPerimeter=0;" edge="1" parent="wGj9Bdo_V_vRDQR6ckQa-32" source="wGj9Bdo_V_vRDQR6ckQa-33">
          <mxGeometry width="50" height="50" relative="1" as="geometry">
            <mxPoint x="100" y="56" as="sourcePoint" />
            <mxPoint x="145" y="74" as="targetPoint" />
          </mxGeometry>
        </mxCell>
        <mxCell id="wGj9Bdo_V_vRDQR6ckQa-38" value="" style="endArrow=none;html=1;rounded=0;strokeWidth=1;" edge="1" parent="wGj9Bdo_V_vRDQR6ckQa-32">
          <mxGeometry width="50" height="50" relative="1" as="geometry">
            <mxPoint x="37" y="9" as="sourcePoint" />
            <mxPoint x="109" y="37" as="targetPoint" />
          </mxGeometry>
        </mxCell>
        <mxCell id="wGj9Bdo_V_vRDQR6ckQa-39" value="" style="endArrow=none;html=1;rounded=0;strokeWidth=1;" edge="1" parent="wGj9Bdo_V_vRDQR6ckQa-32">
          <mxGeometry width="50" height="50" relative="1" as="geometry">
            <mxPoint x="183" y="70" as="sourcePoint" />
            <mxPoint x="223" y="87" as="targetPoint" />
          </mxGeometry>
        </mxCell>
        <mxCell id="wGj9Bdo_V_vRDQR6ckQa-40" value="" style="endArrow=none;html=1;rounded=0;strokeWidth=1;" edge="1" parent="wGj9Bdo_V_vRDQR6ckQa-32">
          <mxGeometry width="50" height="50" relative="1" as="geometry">
            <mxPoint x="167" y="33" as="sourcePoint" />
            <mxPoint x="233" y="60" as="targetPoint" />
          </mxGeometry>
        </mxCell>
        <mxCell id="wGj9Bdo_V_vRDQR6ckQa-41" value="" style="endArrow=none;html=1;rounded=0;strokeWidth=1;" edge="1" parent="wGj9Bdo_V_vRDQR6ckQa-32">
          <mxGeometry width="50" height="50" relative="1" as="geometry">
            <mxPoint x="128" y="24" as="sourcePoint" />
            <mxPoint x="147" y="31" as="targetPoint" />
          </mxGeometry>
        </mxCell>
        <mxCell id="wGj9Bdo_V_vRDQR6ckQa-42" value="" style="endArrow=none;html=1;rounded=0;strokeWidth=1;entryX=0.608;entryY=0.916;entryDx=0;entryDy=0;entryPerimeter=0;" edge="1" parent="wGj9Bdo_V_vRDQR6ckQa-32" target="wGj9Bdo_V_vRDQR6ckQa-33">
          <mxGeometry width="50" height="50" relative="1" as="geometry">
            <mxPoint x="9" y="-3" as="sourcePoint" />
            <mxPoint x="19" y="1" as="targetPoint" />
          </mxGeometry>
        </mxCell>
        <mxCell id="wGj9Bdo_V_vRDQR6ckQa-43" value="" style="endArrow=none;html=1;rounded=0;strokeWidth=1;exitX=0.865;exitY=0.654;exitDx=0;exitDy=0;exitPerimeter=0;" edge="1" parent="wGj9Bdo_V_vRDQR6ckQa-32">
          <mxGeometry width="50" height="50" relative="1" as="geometry">
            <mxPoint x="11" y="21" as="sourcePoint" />
            <mxPoint x="71" y="44" as="targetPoint" />
          </mxGeometry>
        </mxCell>
        <mxCell id="wGj9Bdo_V_vRDQR6ckQa-44" value="" style="endArrow=none;html=1;rounded=0;strokeWidth=1;" edge="1" parent="wGj9Bdo_V_vRDQR6ckQa-32">
          <mxGeometry width="50" height="50" relative="1" as="geometry">
            <mxPoint x="28" y="-40" as="sourcePoint" />
            <mxPoint x="62" y="-26" as="targetPoint" />
          </mxGeometry>
        </mxCell>
        <mxCell id="wGj9Bdo_V_vRDQR6ckQa-45" value="" style="ellipse;whiteSpace=wrap;html=1;strokeColor=default;strokeWidth=1;fillColor=none;gradientColor=none;verticalAlign=top;rotation=112;" vertex="1" parent="wGj9Bdo_V_vRDQR6ckQa-32">
          <mxGeometry x="213" y="74" width="60" height="20" as="geometry" />
        </mxCell>
        <mxCell id="wGj9Bdo_V_vRDQR6ckQa-46" value="" style="ellipse;whiteSpace=wrap;html=1;strokeColor=default;strokeWidth=1;fillColor=none;gradientColor=none;verticalAlign=top;rotation=112;" vertex="1" parent="wGj9Bdo_V_vRDQR6ckQa-32">
          <mxGeometry x="227" y="79" width="37.38" height="12.46" as="geometry" />
        </mxCell>
        <mxCell id="wGj9Bdo_V_vRDQR6ckQa-48" value="" style="group;rotation=-225;" vertex="1" connectable="0" parent="1">
          <mxGeometry x="640.0025253169417" y="990" width="266.62" height="78.37" as="geometry" />
        </mxCell>
        <mxCell id="wGj9Bdo_V_vRDQR6ckQa-49" value="" style="shape=cylinder3;whiteSpace=wrap;html=1;boundedLbl=1;backgroundOutline=1;size=15;strokeColor=default;strokeWidth=2;fillColor=#a0522d;verticalAlign=top;rotation=-135;fontColor=#ffffff;" vertex="1" parent="wGj9Bdo_V_vRDQR6ckQa-48">
          <mxGeometry x="94" y="-94" width="77.8" height="266.62" as="geometry" />
        </mxCell>
        <mxCell id="wGj9Bdo_V_vRDQR6ckQa-50" value="" style="ellipse;whiteSpace=wrap;html=1;strokeColor=default;strokeWidth=2;fillColor=#E2B685;verticalAlign=top;fontColor=#000000;rotation=-225;" vertex="1" parent="wGj9Bdo_V_vRDQR6ckQa-48">
          <mxGeometry x="35" y="84" width="30" height="78.37" as="geometry" />
        </mxCell>
        <mxCell id="wGj9Bdo_V_vRDQR6ckQa-51" value="" style="endArrow=none;html=1;rounded=0;strokeWidth=1;" edge="1" parent="wGj9Bdo_V_vRDQR6ckQa-48">
          <mxGeometry width="50" height="50" relative="1" as="geometry">
            <mxPoint x="242" y="-37" as="sourcePoint" />
            <mxPoint x="206" y="-2" as="targetPoint" />
          </mxGeometry>
        </mxCell>
        <mxCell id="wGj9Bdo_V_vRDQR6ckQa-52" value="" style="endArrow=none;html=1;rounded=0;strokeWidth=1;" edge="1" parent="wGj9Bdo_V_vRDQR6ckQa-48">
          <mxGeometry width="50" height="50" relative="1" as="geometry">
            <mxPoint x="86" y="47" as="sourcePoint" />
            <mxPoint x="38" y="95" as="targetPoint" />
          </mxGeometry>
        </mxCell>
        <mxCell id="wGj9Bdo_V_vRDQR6ckQa-53" value="" style="endArrow=none;html=1;rounded=0;strokeWidth=1;exitX=0.865;exitY=0.654;exitDx=0;exitDy=0;exitPerimeter=0;" edge="1" parent="wGj9Bdo_V_vRDQR6ckQa-48" source="wGj9Bdo_V_vRDQR6ckQa-49">
          <mxGeometry width="50" height="50" relative="1" as="geometry">
            <mxPoint x="131" y="2" as="sourcePoint" />
            <mxPoint x="97" y="36" as="targetPoint" />
          </mxGeometry>
        </mxCell>
        <mxCell id="wGj9Bdo_V_vRDQR6ckQa-54" value="" style="endArrow=none;html=1;rounded=0;strokeWidth=1;" edge="1" parent="wGj9Bdo_V_vRDQR6ckQa-48">
          <mxGeometry width="50" height="50" relative="1" as="geometry">
            <mxPoint x="199" y="-38" as="sourcePoint" />
            <mxPoint x="145" y="18" as="targetPoint" />
          </mxGeometry>
        </mxCell>
        <mxCell id="wGj9Bdo_V_vRDQR6ckQa-55" value="" style="endArrow=none;html=1;rounded=0;strokeWidth=1;" edge="1" parent="wGj9Bdo_V_vRDQR6ckQa-48">
          <mxGeometry width="50" height="50" relative="1" as="geometry">
            <mxPoint x="86" y="73" as="sourcePoint" />
            <mxPoint x="54" y="103" as="targetPoint" />
          </mxGeometry>
        </mxCell>
        <mxCell id="wGj9Bdo_V_vRDQR6ckQa-56" value="" style="endArrow=none;html=1;rounded=0;strokeWidth=1;" edge="1" parent="wGj9Bdo_V_vRDQR6ckQa-48">
          <mxGeometry width="50" height="50" relative="1" as="geometry">
            <mxPoint x="126" y="73" as="sourcePoint" />
            <mxPoint x="75" y="123" as="targetPoint" />
          </mxGeometry>
        </mxCell>
        <mxCell id="wGj9Bdo_V_vRDQR6ckQa-57" value="" style="endArrow=none;html=1;rounded=0;strokeWidth=1;" edge="1" parent="wGj9Bdo_V_vRDQR6ckQa-48">
          <mxGeometry width="50" height="50" relative="1" as="geometry">
            <mxPoint x="149" y="40" as="sourcePoint" />
            <mxPoint x="135" y="55" as="targetPoint" />
          </mxGeometry>
        </mxCell>
        <mxCell id="wGj9Bdo_V_vRDQR6ckQa-58" value="" style="endArrow=none;html=1;rounded=0;strokeWidth=1;entryX=0.608;entryY=0.916;entryDx=0;entryDy=0;entryPerimeter=0;" edge="1" parent="wGj9Bdo_V_vRDQR6ckQa-48" target="wGj9Bdo_V_vRDQR6ckQa-49">
          <mxGeometry width="50" height="50" relative="1" as="geometry">
            <mxPoint x="221" y="-59" as="sourcePoint" />
            <mxPoint x="213" y="-51" as="targetPoint" />
          </mxGeometry>
        </mxCell>
        <mxCell id="wGj9Bdo_V_vRDQR6ckQa-59" value="" style="endArrow=none;html=1;rounded=0;strokeWidth=1;exitX=0.865;exitY=0.654;exitDx=0;exitDy=0;exitPerimeter=0;" edge="1" parent="wGj9Bdo_V_vRDQR6ckQa-48">
          <mxGeometry width="50" height="50" relative="1" as="geometry">
            <mxPoint x="198" y="-66" as="sourcePoint" />
            <mxPoint x="153" y="-20" as="targetPoint" />
          </mxGeometry>
        </mxCell>
        <mxCell id="wGj9Bdo_V_vRDQR6ckQa-60" value="" style="endArrow=none;html=1;rounded=0;strokeWidth=1;" edge="1" parent="wGj9Bdo_V_vRDQR6ckQa-48">
          <mxGeometry width="50" height="50" relative="1" as="geometry">
            <mxPoint x="247" y="-27" as="sourcePoint" />
            <mxPoint x="221" y="-1" as="targetPoint" />
          </mxGeometry>
        </mxCell>
        <mxCell id="wGj9Bdo_V_vRDQR6ckQa-61" value="" style="ellipse;whiteSpace=wrap;html=1;strokeColor=default;strokeWidth=1;fillColor=none;gradientColor=none;verticalAlign=top;rotation=-135;" vertex="1" parent="wGj9Bdo_V_vRDQR6ckQa-48">
          <mxGeometry x="19" y="113" width="60" height="20" as="geometry" />
        </mxCell>
        <mxCell id="wGj9Bdo_V_vRDQR6ckQa-62" value="" style="ellipse;whiteSpace=wrap;html=1;strokeColor=default;strokeWidth=1;fillColor=none;gradientColor=none;verticalAlign=top;rotation=-135;" vertex="1" parent="wGj9Bdo_V_vRDQR6ckQa-48">
          <mxGeometry x="28" y="118" width="37.38" height="12.46" as="geometry" />
        </mxCell>
        <mxCell id="wGj9Bdo_V_vRDQR6ckQa-63" value="" style="group;rotation=-60;" vertex="1" connectable="0" parent="1">
          <mxGeometry x="1560.0025253169417" y="120" width="266.62" height="78.37" as="geometry" />
        </mxCell>
        <mxCell id="wGj9Bdo_V_vRDQR6ckQa-64" value="" style="shape=cylinder3;whiteSpace=wrap;html=1;boundedLbl=1;backgroundOutline=1;size=15;strokeColor=default;strokeWidth=2;fillColor=#a0522d;verticalAlign=top;rotation=30;fontColor=#ffffff;" vertex="1" parent="wGj9Bdo_V_vRDQR6ckQa-63">
          <mxGeometry x="94" y="-95" width="77.8" height="266.62" as="geometry" />
        </mxCell>
        <mxCell id="wGj9Bdo_V_vRDQR6ckQa-65" value="" style="ellipse;whiteSpace=wrap;html=1;strokeColor=default;strokeWidth=2;fillColor=#E2B685;verticalAlign=top;fontColor=#000000;rotation=-60;" vertex="1" parent="wGj9Bdo_V_vRDQR6ckQa-63">
          <mxGeometry x="177" y="-102" width="30" height="78.37" as="geometry" />
        </mxCell>
        <mxCell id="wGj9Bdo_V_vRDQR6ckQa-66" value="" style="endArrow=none;html=1;rounded=0;strokeWidth=1;" edge="1" parent="wGj9Bdo_V_vRDQR6ckQa-63">
          <mxGeometry width="50" height="50" relative="1" as="geometry">
            <mxPoint x="48" y="141" as="sourcePoint" />
            <mxPoint x="74" y="98" as="targetPoint" />
          </mxGeometry>
        </mxCell>
        <mxCell id="wGj9Bdo_V_vRDQR6ckQa-67" value="" style="endArrow=none;html=1;rounded=0;strokeWidth=1;" edge="1" parent="wGj9Bdo_V_vRDQR6ckQa-63">
          <mxGeometry width="50" height="50" relative="1" as="geometry">
            <mxPoint x="177" y="20" as="sourcePoint" />
            <mxPoint x="210" y="-40" as="targetPoint" />
          </mxGeometry>
        </mxCell>
        <mxCell id="wGj9Bdo_V_vRDQR6ckQa-68" value="" style="endArrow=none;html=1;rounded=0;strokeWidth=1;exitX=0.865;exitY=0.654;exitDx=0;exitDy=0;exitPerimeter=0;" edge="1" parent="wGj9Bdo_V_vRDQR6ckQa-63" source="wGj9Bdo_V_vRDQR6ckQa-64">
          <mxGeometry width="50" height="50" relative="1" as="geometry">
            <mxPoint x="145" y="75" as="sourcePoint" />
            <mxPoint x="169" y="33" as="targetPoint" />
          </mxGeometry>
        </mxCell>
        <mxCell id="wGj9Bdo_V_vRDQR6ckQa-69" value="" style="endArrow=none;html=1;rounded=0;strokeWidth=1;" edge="1" parent="wGj9Bdo_V_vRDQR6ckQa-63">
          <mxGeometry width="50" height="50" relative="1" as="geometry">
            <mxPoint x="90" y="131" as="sourcePoint" />
            <mxPoint x="128" y="62" as="targetPoint" />
          </mxGeometry>
        </mxCell>
        <mxCell id="wGj9Bdo_V_vRDQR6ckQa-70" value="" style="endArrow=none;html=1;rounded=0;strokeWidth=1;" edge="1" parent="wGj9Bdo_V_vRDQR6ckQa-63">
          <mxGeometry width="50" height="50" relative="1" as="geometry">
            <mxPoint x="171" y="-5" as="sourcePoint" />
            <mxPoint x="194" y="-43" as="targetPoint" />
          </mxGeometry>
        </mxCell>
        <mxCell id="wGj9Bdo_V_vRDQR6ckQa-71" value="" style="endArrow=none;html=1;rounded=0;strokeWidth=1;" edge="1" parent="wGj9Bdo_V_vRDQR6ckQa-63">
          <mxGeometry width="50" height="50" relative="1" as="geometry">
            <mxPoint x="132" y="4" as="sourcePoint" />
            <mxPoint x="168" y="-57" as="targetPoint" />
          </mxGeometry>
        </mxCell>
        <mxCell id="wGj9Bdo_V_vRDQR6ckQa-72" value="" style="endArrow=none;html=1;rounded=0;strokeWidth=1;" edge="1" parent="wGj9Bdo_V_vRDQR6ckQa-63">
          <mxGeometry width="50" height="50" relative="1" as="geometry">
            <mxPoint x="118" y="42" as="sourcePoint" />
            <mxPoint x="128" y="25" as="targetPoint" />
          </mxGeometry>
        </mxCell>
        <mxCell id="wGj9Bdo_V_vRDQR6ckQa-73" value="" style="endArrow=none;html=1;rounded=0;strokeWidth=1;entryX=0.608;entryY=0.916;entryDx=0;entryDy=0;entryPerimeter=0;" edge="1" parent="wGj9Bdo_V_vRDQR6ckQa-63" target="wGj9Bdo_V_vRDQR6ckQa-64">
          <mxGeometry width="50" height="50" relative="1" as="geometry">
            <mxPoint x="74" y="157" as="sourcePoint" />
            <mxPoint x="79" y="147" as="targetPoint" />
          </mxGeometry>
        </mxCell>
        <mxCell id="wGj9Bdo_V_vRDQR6ckQa-74" value="" style="endArrow=none;html=1;rounded=0;strokeWidth=1;exitX=0.865;exitY=0.654;exitDx=0;exitDy=0;exitPerimeter=0;" edge="1" parent="wGj9Bdo_V_vRDQR6ckQa-63">
          <mxGeometry width="50" height="50" relative="1" as="geometry">
            <mxPoint x="98" y="158" as="sourcePoint" />
            <mxPoint x="129" y="101" as="targetPoint" />
          </mxGeometry>
        </mxCell>
        <mxCell id="wGj9Bdo_V_vRDQR6ckQa-75" value="" style="endArrow=none;html=1;rounded=0;strokeWidth=1;" edge="1" parent="wGj9Bdo_V_vRDQR6ckQa-63">
          <mxGeometry width="50" height="50" relative="1" as="geometry">
            <mxPoint x="40" y="133" as="sourcePoint" />
            <mxPoint x="59" y="101" as="targetPoint" />
          </mxGeometry>
        </mxCell>
        <mxCell id="wGj9Bdo_V_vRDQR6ckQa-76" value="" style="ellipse;whiteSpace=wrap;html=1;strokeColor=default;strokeWidth=1;fillColor=none;gradientColor=none;verticalAlign=top;rotation=30;" vertex="1" parent="wGj9Bdo_V_vRDQR6ckQa-63">
          <mxGeometry x="163" y="-73" width="60" height="20" as="geometry" />
        </mxCell>
        <mxCell id="wGj9Bdo_V_vRDQR6ckQa-77" value="" style="ellipse;whiteSpace=wrap;html=1;strokeColor=default;strokeWidth=1;fillColor=none;gradientColor=none;verticalAlign=top;rotation=30;" vertex="1" parent="wGj9Bdo_V_vRDQR6ckQa-63">
          <mxGeometry x="176" y="-72" width="37.38" height="12.46" as="geometry" />
        </mxCell>
        <mxCell id="wGj9Bdo_V_vRDQR6ckQa-78" value="" style="group;rotation=-60;" vertex="1" connectable="0" parent="1">
          <mxGeometry x="1620.0025253169417" y="960" width="266.62" height="78.37" as="geometry" />
        </mxCell>
        <mxCell id="wGj9Bdo_V_vRDQR6ckQa-79" value="" style="shape=cylinder3;whiteSpace=wrap;html=1;boundedLbl=1;backgroundOutline=1;size=15;strokeColor=default;strokeWidth=2;fillColor=#a0522d;verticalAlign=top;rotation=30;fontColor=#ffffff;" vertex="1" parent="wGj9Bdo_V_vRDQR6ckQa-78">
          <mxGeometry x="94" y="-95" width="77.8" height="266.62" as="geometry" />
        </mxCell>
        <mxCell id="wGj9Bdo_V_vRDQR6ckQa-80" value="" style="ellipse;whiteSpace=wrap;html=1;strokeColor=default;strokeWidth=2;fillColor=#E2B685;verticalAlign=top;fontColor=#000000;rotation=-60;" vertex="1" parent="wGj9Bdo_V_vRDQR6ckQa-78">
          <mxGeometry x="177" y="-102" width="30" height="78.37" as="geometry" />
        </mxCell>
        <mxCell id="wGj9Bdo_V_vRDQR6ckQa-81" value="" style="endArrow=none;html=1;rounded=0;strokeWidth=1;" edge="1" parent="wGj9Bdo_V_vRDQR6ckQa-78">
          <mxGeometry width="50" height="50" relative="1" as="geometry">
            <mxPoint x="48" y="141" as="sourcePoint" />
            <mxPoint x="74" y="98" as="targetPoint" />
          </mxGeometry>
        </mxCell>
        <mxCell id="wGj9Bdo_V_vRDQR6ckQa-82" value="" style="endArrow=none;html=1;rounded=0;strokeWidth=1;" edge="1" parent="wGj9Bdo_V_vRDQR6ckQa-78">
          <mxGeometry width="50" height="50" relative="1" as="geometry">
            <mxPoint x="177" y="20" as="sourcePoint" />
            <mxPoint x="210" y="-40" as="targetPoint" />
          </mxGeometry>
        </mxCell>
        <mxCell id="wGj9Bdo_V_vRDQR6ckQa-83" value="" style="endArrow=none;html=1;rounded=0;strokeWidth=1;exitX=0.865;exitY=0.654;exitDx=0;exitDy=0;exitPerimeter=0;" edge="1" parent="wGj9Bdo_V_vRDQR6ckQa-78" source="wGj9Bdo_V_vRDQR6ckQa-79">
          <mxGeometry width="50" height="50" relative="1" as="geometry">
            <mxPoint x="145" y="75" as="sourcePoint" />
            <mxPoint x="169" y="33" as="targetPoint" />
          </mxGeometry>
        </mxCell>
        <mxCell id="wGj9Bdo_V_vRDQR6ckQa-84" value="" style="endArrow=none;html=1;rounded=0;strokeWidth=1;" edge="1" parent="wGj9Bdo_V_vRDQR6ckQa-78">
          <mxGeometry width="50" height="50" relative="1" as="geometry">
            <mxPoint x="90" y="131" as="sourcePoint" />
            <mxPoint x="128" y="62" as="targetPoint" />
          </mxGeometry>
        </mxCell>
        <mxCell id="wGj9Bdo_V_vRDQR6ckQa-85" value="" style="endArrow=none;html=1;rounded=0;strokeWidth=1;" edge="1" parent="wGj9Bdo_V_vRDQR6ckQa-78">
          <mxGeometry width="50" height="50" relative="1" as="geometry">
            <mxPoint x="171" y="-5" as="sourcePoint" />
            <mxPoint x="194" y="-43" as="targetPoint" />
          </mxGeometry>
        </mxCell>
        <mxCell id="wGj9Bdo_V_vRDQR6ckQa-86" value="" style="endArrow=none;html=1;rounded=0;strokeWidth=1;" edge="1" parent="wGj9Bdo_V_vRDQR6ckQa-78">
          <mxGeometry width="50" height="50" relative="1" as="geometry">
            <mxPoint x="132" y="4" as="sourcePoint" />
            <mxPoint x="168" y="-57" as="targetPoint" />
          </mxGeometry>
        </mxCell>
        <mxCell id="wGj9Bdo_V_vRDQR6ckQa-87" value="" style="endArrow=none;html=1;rounded=0;strokeWidth=1;" edge="1" parent="wGj9Bdo_V_vRDQR6ckQa-78">
          <mxGeometry width="50" height="50" relative="1" as="geometry">
            <mxPoint x="118" y="42" as="sourcePoint" />
            <mxPoint x="128" y="25" as="targetPoint" />
          </mxGeometry>
        </mxCell>
        <mxCell id="wGj9Bdo_V_vRDQR6ckQa-88" value="" style="endArrow=none;html=1;rounded=0;strokeWidth=1;entryX=0.608;entryY=0.916;entryDx=0;entryDy=0;entryPerimeter=0;" edge="1" parent="wGj9Bdo_V_vRDQR6ckQa-78" target="wGj9Bdo_V_vRDQR6ckQa-79">
          <mxGeometry width="50" height="50" relative="1" as="geometry">
            <mxPoint x="74" y="157" as="sourcePoint" />
            <mxPoint x="79" y="147" as="targetPoint" />
          </mxGeometry>
        </mxCell>
        <mxCell id="wGj9Bdo_V_vRDQR6ckQa-89" value="" style="endArrow=none;html=1;rounded=0;strokeWidth=1;exitX=0.865;exitY=0.654;exitDx=0;exitDy=0;exitPerimeter=0;" edge="1" parent="wGj9Bdo_V_vRDQR6ckQa-78">
          <mxGeometry width="50" height="50" relative="1" as="geometry">
            <mxPoint x="98" y="158" as="sourcePoint" />
            <mxPoint x="129" y="101" as="targetPoint" />
          </mxGeometry>
        </mxCell>
        <mxCell id="wGj9Bdo_V_vRDQR6ckQa-90" value="" style="endArrow=none;html=1;rounded=0;strokeWidth=1;" edge="1" parent="wGj9Bdo_V_vRDQR6ckQa-78">
          <mxGeometry width="50" height="50" relative="1" as="geometry">
            <mxPoint x="40" y="133" as="sourcePoint" />
            <mxPoint x="59" y="101" as="targetPoint" />
          </mxGeometry>
        </mxCell>
        <mxCell id="wGj9Bdo_V_vRDQR6ckQa-91" value="" style="ellipse;whiteSpace=wrap;html=1;strokeColor=default;strokeWidth=1;fillColor=none;gradientColor=none;verticalAlign=top;rotation=30;" vertex="1" parent="wGj9Bdo_V_vRDQR6ckQa-78">
          <mxGeometry x="163" y="-73" width="60" height="20" as="geometry" />
        </mxCell>
        <mxCell id="wGj9Bdo_V_vRDQR6ckQa-92" value="" style="ellipse;whiteSpace=wrap;html=1;strokeColor=default;strokeWidth=1;fillColor=none;gradientColor=none;verticalAlign=top;rotation=30;" vertex="1" parent="wGj9Bdo_V_vRDQR6ckQa-78">
          <mxGeometry x="176" y="-72" width="37.38" height="12.46" as="geometry" />
        </mxCell>
        <mxCell id="wGj9Bdo_V_vRDQR6ckQa-93" value="" style="group;rotation=-151;" vertex="1" connectable="0" parent="1">
          <mxGeometry x="90.00252531694173" y="522" width="266.62" height="78.37" as="geometry" />
        </mxCell>
        <mxCell id="wGj9Bdo_V_vRDQR6ckQa-94" value="" style="shape=cylinder3;whiteSpace=wrap;html=1;boundedLbl=1;backgroundOutline=1;size=15;strokeColor=default;strokeWidth=2;fillColor=#a0522d;verticalAlign=top;rotation=-61;fontColor=#ffffff;" vertex="1" parent="wGj9Bdo_V_vRDQR6ckQa-93">
          <mxGeometry x="94" y="-94" width="77.8" height="266.62" as="geometry" />
        </mxCell>
        <mxCell id="wGj9Bdo_V_vRDQR6ckQa-95" value="" style="ellipse;whiteSpace=wrap;html=1;strokeColor=default;strokeWidth=2;fillColor=#E2B685;verticalAlign=top;fontColor=#000000;rotation=-151;" vertex="1" parent="wGj9Bdo_V_vRDQR6ckQa-93">
          <mxGeometry x="15" y="-57" width="30" height="78.37" as="geometry" />
        </mxCell>
        <mxCell id="wGj9Bdo_V_vRDQR6ckQa-96" value="" style="endArrow=none;html=1;rounded=0;strokeWidth=1;" edge="1" parent="wGj9Bdo_V_vRDQR6ckQa-93">
          <mxGeometry width="50" height="50" relative="1" as="geometry">
            <mxPoint x="237" y="123" as="sourcePoint" />
            <mxPoint x="193" y="97" as="targetPoint" />
          </mxGeometry>
        </mxCell>
        <mxCell id="wGj9Bdo_V_vRDQR6ckQa-97" value="" style="endArrow=none;html=1;rounded=0;strokeWidth=1;" edge="1" parent="wGj9Bdo_V_vRDQR6ckQa-93">
          <mxGeometry width="50" height="50" relative="1" as="geometry">
            <mxPoint x="113" y="-4" as="sourcePoint" />
            <mxPoint x="53" y="-36" as="targetPoint" />
          </mxGeometry>
        </mxCell>
        <mxCell id="wGj9Bdo_V_vRDQR6ckQa-98" value="" style="endArrow=none;html=1;rounded=0;strokeWidth=1;exitX=0.865;exitY=0.654;exitDx=0;exitDy=0;exitPerimeter=0;" edge="1" parent="wGj9Bdo_V_vRDQR6ckQa-93" source="wGj9Bdo_V_vRDQR6ckQa-94">
          <mxGeometry width="50" height="50" relative="1" as="geometry">
            <mxPoint x="169" y="27" as="sourcePoint" />
            <mxPoint x="127" y="4" as="targetPoint" />
          </mxGeometry>
        </mxCell>
        <mxCell id="wGj9Bdo_V_vRDQR6ckQa-99" value="" style="endArrow=none;html=1;rounded=0;strokeWidth=1;" edge="1" parent="wGj9Bdo_V_vRDQR6ckQa-93">
          <mxGeometry width="50" height="50" relative="1" as="geometry">
            <mxPoint x="226" y="81" as="sourcePoint" />
            <mxPoint x="156" y="44" as="targetPoint" />
          </mxGeometry>
        </mxCell>
        <mxCell id="wGj9Bdo_V_vRDQR6ckQa-100" value="" style="endArrow=none;html=1;rounded=0;strokeWidth=1;" edge="1" parent="wGj9Bdo_V_vRDQR6ckQa-93">
          <mxGeometry width="50" height="50" relative="1" as="geometry">
            <mxPoint x="88" y="2" as="sourcePoint" />
            <mxPoint x="50" y="-20" as="targetPoint" />
          </mxGeometry>
        </mxCell>
        <mxCell id="wGj9Bdo_V_vRDQR6ckQa-101" value="" style="endArrow=none;html=1;rounded=0;strokeWidth=1;" edge="1" parent="wGj9Bdo_V_vRDQR6ckQa-93">
          <mxGeometry width="50" height="50" relative="1" as="geometry">
            <mxPoint x="98" y="41" as="sourcePoint" />
            <mxPoint x="37" y="6" as="targetPoint" />
          </mxGeometry>
        </mxCell>
        <mxCell id="wGj9Bdo_V_vRDQR6ckQa-102" value="" style="endArrow=none;html=1;rounded=0;strokeWidth=1;" edge="1" parent="wGj9Bdo_V_vRDQR6ckQa-93">
          <mxGeometry width="50" height="50" relative="1" as="geometry">
            <mxPoint x="136" y="54" as="sourcePoint" />
            <mxPoint x="119" y="45" as="targetPoint" />
          </mxGeometry>
        </mxCell>
        <mxCell id="wGj9Bdo_V_vRDQR6ckQa-103" value="" style="endArrow=none;html=1;rounded=0;strokeWidth=1;entryX=0.608;entryY=0.916;entryDx=0;entryDy=0;entryPerimeter=0;" edge="1" parent="wGj9Bdo_V_vRDQR6ckQa-93" target="wGj9Bdo_V_vRDQR6ckQa-94">
          <mxGeometry width="50" height="50" relative="1" as="geometry">
            <mxPoint x="252" y="96" as="sourcePoint" />
            <mxPoint x="242" y="92" as="targetPoint" />
          </mxGeometry>
        </mxCell>
        <mxCell id="wGj9Bdo_V_vRDQR6ckQa-104" value="" style="endArrow=none;html=1;rounded=0;strokeWidth=1;exitX=0.865;exitY=0.654;exitDx=0;exitDy=0;exitPerimeter=0;" edge="1" parent="wGj9Bdo_V_vRDQR6ckQa-93">
          <mxGeometry width="50" height="50" relative="1" as="geometry">
            <mxPoint x="253" y="72" as="sourcePoint" />
            <mxPoint x="195" y="42" as="targetPoint" />
          </mxGeometry>
        </mxCell>
        <mxCell id="wGj9Bdo_V_vRDQR6ckQa-105" value="" style="endArrow=none;html=1;rounded=0;strokeWidth=1;" edge="1" parent="wGj9Bdo_V_vRDQR6ckQa-93">
          <mxGeometry width="50" height="50" relative="1" as="geometry">
            <mxPoint x="229" y="131" as="sourcePoint" />
            <mxPoint x="196" y="112" as="targetPoint" />
          </mxGeometry>
        </mxCell>
        <mxCell id="wGj9Bdo_V_vRDQR6ckQa-106" value="" style="ellipse;whiteSpace=wrap;html=1;strokeColor=default;strokeWidth=1;fillColor=none;gradientColor=none;verticalAlign=top;rotation=-61;" vertex="1" parent="wGj9Bdo_V_vRDQR6ckQa-93">
          <mxGeometry y="-29" width="60" height="20" as="geometry" />
        </mxCell>
        <mxCell id="wGj9Bdo_V_vRDQR6ckQa-107" value="" style="ellipse;whiteSpace=wrap;html=1;strokeColor=default;strokeWidth=1;fillColor=none;gradientColor=none;verticalAlign=top;rotation=-61;" vertex="1" parent="wGj9Bdo_V_vRDQR6ckQa-93">
          <mxGeometry x="9" y="-27" width="37.38" height="12.46" as="geometry" />
        </mxCell>
        <mxCell id="wGj9Bdo_V_vRDQR6ckQa-110" value="" style="group;rotation=-60;" vertex="1" connectable="0" parent="1">
          <mxGeometry x="1420.0025253169417" y="490" width="266.62" height="78.37" as="geometry" />
        </mxCell>
        <mxCell id="wGj9Bdo_V_vRDQR6ckQa-111" value="" style="shape=cylinder3;whiteSpace=wrap;html=1;boundedLbl=1;backgroundOutline=1;size=15;strokeColor=default;strokeWidth=2;fillColor=#a0522d;verticalAlign=top;rotation=30;fontColor=#ffffff;" vertex="1" parent="wGj9Bdo_V_vRDQR6ckQa-110">
          <mxGeometry x="94" y="-95" width="77.8" height="266.62" as="geometry" />
        </mxCell>
        <mxCell id="wGj9Bdo_V_vRDQR6ckQa-112" value="" style="ellipse;whiteSpace=wrap;html=1;strokeColor=default;strokeWidth=2;fillColor=#E2B685;verticalAlign=top;fontColor=#000000;rotation=-60;" vertex="1" parent="wGj9Bdo_V_vRDQR6ckQa-110">
          <mxGeometry x="177" y="-102" width="30" height="78.37" as="geometry" />
        </mxCell>
        <mxCell id="wGj9Bdo_V_vRDQR6ckQa-113" value="" style="endArrow=none;html=1;rounded=0;strokeWidth=1;" edge="1" parent="wGj9Bdo_V_vRDQR6ckQa-110">
          <mxGeometry width="50" height="50" relative="1" as="geometry">
            <mxPoint x="48" y="141" as="sourcePoint" />
            <mxPoint x="74" y="98" as="targetPoint" />
          </mxGeometry>
        </mxCell>
        <mxCell id="wGj9Bdo_V_vRDQR6ckQa-114" value="" style="endArrow=none;html=1;rounded=0;strokeWidth=1;" edge="1" parent="wGj9Bdo_V_vRDQR6ckQa-110">
          <mxGeometry width="50" height="50" relative="1" as="geometry">
            <mxPoint x="177" y="20" as="sourcePoint" />
            <mxPoint x="210" y="-40" as="targetPoint" />
          </mxGeometry>
        </mxCell>
        <mxCell id="wGj9Bdo_V_vRDQR6ckQa-115" value="" style="endArrow=none;html=1;rounded=0;strokeWidth=1;exitX=0.865;exitY=0.654;exitDx=0;exitDy=0;exitPerimeter=0;" edge="1" parent="wGj9Bdo_V_vRDQR6ckQa-110" source="wGj9Bdo_V_vRDQR6ckQa-111">
          <mxGeometry width="50" height="50" relative="1" as="geometry">
            <mxPoint x="145" y="75" as="sourcePoint" />
            <mxPoint x="169" y="33" as="targetPoint" />
          </mxGeometry>
        </mxCell>
        <mxCell id="wGj9Bdo_V_vRDQR6ckQa-116" value="" style="endArrow=none;html=1;rounded=0;strokeWidth=1;" edge="1" parent="wGj9Bdo_V_vRDQR6ckQa-110">
          <mxGeometry width="50" height="50" relative="1" as="geometry">
            <mxPoint x="90" y="131" as="sourcePoint" />
            <mxPoint x="128" y="62" as="targetPoint" />
          </mxGeometry>
        </mxCell>
        <mxCell id="wGj9Bdo_V_vRDQR6ckQa-117" value="" style="endArrow=none;html=1;rounded=0;strokeWidth=1;" edge="1" parent="wGj9Bdo_V_vRDQR6ckQa-110">
          <mxGeometry width="50" height="50" relative="1" as="geometry">
            <mxPoint x="171" y="-5" as="sourcePoint" />
            <mxPoint x="194" y="-43" as="targetPoint" />
          </mxGeometry>
        </mxCell>
        <mxCell id="wGj9Bdo_V_vRDQR6ckQa-118" value="" style="endArrow=none;html=1;rounded=0;strokeWidth=1;" edge="1" parent="wGj9Bdo_V_vRDQR6ckQa-110">
          <mxGeometry width="50" height="50" relative="1" as="geometry">
            <mxPoint x="132" y="4" as="sourcePoint" />
            <mxPoint x="168" y="-57" as="targetPoint" />
          </mxGeometry>
        </mxCell>
        <mxCell id="wGj9Bdo_V_vRDQR6ckQa-119" value="" style="endArrow=none;html=1;rounded=0;strokeWidth=1;" edge="1" parent="wGj9Bdo_V_vRDQR6ckQa-110">
          <mxGeometry width="50" height="50" relative="1" as="geometry">
            <mxPoint x="118" y="42" as="sourcePoint" />
            <mxPoint x="128" y="25" as="targetPoint" />
          </mxGeometry>
        </mxCell>
        <mxCell id="wGj9Bdo_V_vRDQR6ckQa-120" value="" style="endArrow=none;html=1;rounded=0;strokeWidth=1;entryX=0.608;entryY=0.916;entryDx=0;entryDy=0;entryPerimeter=0;" edge="1" parent="wGj9Bdo_V_vRDQR6ckQa-110" target="wGj9Bdo_V_vRDQR6ckQa-111">
          <mxGeometry width="50" height="50" relative="1" as="geometry">
            <mxPoint x="74" y="157" as="sourcePoint" />
            <mxPoint x="79" y="147" as="targetPoint" />
          </mxGeometry>
        </mxCell>
        <mxCell id="wGj9Bdo_V_vRDQR6ckQa-121" value="" style="endArrow=none;html=1;rounded=0;strokeWidth=1;exitX=0.865;exitY=0.654;exitDx=0;exitDy=0;exitPerimeter=0;" edge="1" parent="wGj9Bdo_V_vRDQR6ckQa-110">
          <mxGeometry width="50" height="50" relative="1" as="geometry">
            <mxPoint x="98" y="158" as="sourcePoint" />
            <mxPoint x="129" y="101" as="targetPoint" />
          </mxGeometry>
        </mxCell>
        <mxCell id="wGj9Bdo_V_vRDQR6ckQa-122" value="" style="endArrow=none;html=1;rounded=0;strokeWidth=1;" edge="1" parent="wGj9Bdo_V_vRDQR6ckQa-110">
          <mxGeometry width="50" height="50" relative="1" as="geometry">
            <mxPoint x="40" y="133" as="sourcePoint" />
            <mxPoint x="59" y="101" as="targetPoint" />
          </mxGeometry>
        </mxCell>
        <mxCell id="wGj9Bdo_V_vRDQR6ckQa-123" value="" style="ellipse;whiteSpace=wrap;html=1;strokeColor=default;strokeWidth=1;fillColor=none;gradientColor=none;verticalAlign=top;rotation=30;" vertex="1" parent="wGj9Bdo_V_vRDQR6ckQa-110">
          <mxGeometry x="163" y="-73" width="60" height="20" as="geometry" />
        </mxCell>
        <mxCell id="wGj9Bdo_V_vRDQR6ckQa-124" value="" style="ellipse;whiteSpace=wrap;html=1;strokeColor=default;strokeWidth=1;fillColor=none;gradientColor=none;verticalAlign=top;rotation=30;" vertex="1" parent="wGj9Bdo_V_vRDQR6ckQa-110">
          <mxGeometry x="176" y="-72" width="37.38" height="12.46" as="geometry" />
        </mxCell>
        <mxCell id="wGj9Bdo_V_vRDQR6ckQa-125" value="" style="group;rotation=-150;" vertex="1" connectable="0" parent="1">
          <mxGeometry x="990.0025253169417" y="390" width="266.62" height="78.37" as="geometry" />
        </mxCell>
        <mxCell id="wGj9Bdo_V_vRDQR6ckQa-126" value="" style="shape=cylinder3;whiteSpace=wrap;html=1;boundedLbl=1;backgroundOutline=1;size=15;strokeColor=default;strokeWidth=2;fillColor=#a0522d;verticalAlign=top;rotation=-60;fontColor=#ffffff;" vertex="1" parent="wGj9Bdo_V_vRDQR6ckQa-125">
          <mxGeometry x="94" y="-94" width="77.8" height="266.62" as="geometry" />
        </mxCell>
        <mxCell id="wGj9Bdo_V_vRDQR6ckQa-127" value="" style="ellipse;whiteSpace=wrap;html=1;strokeColor=default;strokeWidth=2;fillColor=#E2B685;verticalAlign=top;fontColor=#000000;rotation=-150;" vertex="1" parent="wGj9Bdo_V_vRDQR6ckQa-125">
          <mxGeometry x="16" y="-59" width="30" height="78.37" as="geometry" />
        </mxCell>
        <mxCell id="wGj9Bdo_V_vRDQR6ckQa-128" value="" style="endArrow=none;html=1;rounded=0;strokeWidth=1;" edge="1" parent="wGj9Bdo_V_vRDQR6ckQa-125">
          <mxGeometry width="50" height="50" relative="1" as="geometry">
            <mxPoint x="235" y="124" as="sourcePoint" />
            <mxPoint x="192" y="98" as="targetPoint" />
          </mxGeometry>
        </mxCell>
        <mxCell id="wGj9Bdo_V_vRDQR6ckQa-129" value="" style="endArrow=none;html=1;rounded=0;strokeWidth=1;" edge="1" parent="wGj9Bdo_V_vRDQR6ckQa-125">
          <mxGeometry width="50" height="50" relative="1" as="geometry">
            <mxPoint x="114" y="-5" as="sourcePoint" />
            <mxPoint x="54" y="-38" as="targetPoint" />
          </mxGeometry>
        </mxCell>
        <mxCell id="wGj9Bdo_V_vRDQR6ckQa-130" value="" style="endArrow=none;html=1;rounded=0;strokeWidth=1;exitX=0.865;exitY=0.654;exitDx=0;exitDy=0;exitPerimeter=0;" edge="1" parent="wGj9Bdo_V_vRDQR6ckQa-125" source="wGj9Bdo_V_vRDQR6ckQa-126">
          <mxGeometry width="50" height="50" relative="1" as="geometry">
            <mxPoint x="169" y="27" as="sourcePoint" />
            <mxPoint x="127" y="3" as="targetPoint" />
          </mxGeometry>
        </mxCell>
        <mxCell id="wGj9Bdo_V_vRDQR6ckQa-131" value="" style="endArrow=none;html=1;rounded=0;strokeWidth=1;" edge="1" parent="wGj9Bdo_V_vRDQR6ckQa-125">
          <mxGeometry width="50" height="50" relative="1" as="geometry">
            <mxPoint x="225" y="82" as="sourcePoint" />
            <mxPoint x="156" y="44" as="targetPoint" />
          </mxGeometry>
        </mxCell>
        <mxCell id="wGj9Bdo_V_vRDQR6ckQa-132" value="" style="endArrow=none;html=1;rounded=0;strokeWidth=1;" edge="1" parent="wGj9Bdo_V_vRDQR6ckQa-125">
          <mxGeometry width="50" height="50" relative="1" as="geometry">
            <mxPoint x="89" y="1" as="sourcePoint" />
            <mxPoint x="51" y="-22" as="targetPoint" />
          </mxGeometry>
        </mxCell>
        <mxCell id="wGj9Bdo_V_vRDQR6ckQa-133" value="" style="endArrow=none;html=1;rounded=0;strokeWidth=1;" edge="1" parent="wGj9Bdo_V_vRDQR6ckQa-125">
          <mxGeometry width="50" height="50" relative="1" as="geometry">
            <mxPoint x="98" y="40" as="sourcePoint" />
            <mxPoint x="37" y="4" as="targetPoint" />
          </mxGeometry>
        </mxCell>
        <mxCell id="wGj9Bdo_V_vRDQR6ckQa-134" value="" style="endArrow=none;html=1;rounded=0;strokeWidth=1;" edge="1" parent="wGj9Bdo_V_vRDQR6ckQa-125">
          <mxGeometry width="50" height="50" relative="1" as="geometry">
            <mxPoint x="136" y="54" as="sourcePoint" />
            <mxPoint x="119" y="44" as="targetPoint" />
          </mxGeometry>
        </mxCell>
        <mxCell id="wGj9Bdo_V_vRDQR6ckQa-135" value="" style="endArrow=none;html=1;rounded=0;strokeWidth=1;entryX=0.608;entryY=0.916;entryDx=0;entryDy=0;entryPerimeter=0;" edge="1" parent="wGj9Bdo_V_vRDQR6ckQa-125" target="wGj9Bdo_V_vRDQR6ckQa-126">
          <mxGeometry width="50" height="50" relative="1" as="geometry">
            <mxPoint x="251" y="98" as="sourcePoint" />
            <mxPoint x="241" y="93" as="targetPoint" />
          </mxGeometry>
        </mxCell>
        <mxCell id="wGj9Bdo_V_vRDQR6ckQa-136" value="" style="endArrow=none;html=1;rounded=0;strokeWidth=1;exitX=0.865;exitY=0.654;exitDx=0;exitDy=0;exitPerimeter=0;" edge="1" parent="wGj9Bdo_V_vRDQR6ckQa-125">
          <mxGeometry width="50" height="50" relative="1" as="geometry">
            <mxPoint x="252" y="74" as="sourcePoint" />
            <mxPoint x="195" y="43" as="targetPoint" />
          </mxGeometry>
        </mxCell>
        <mxCell id="wGj9Bdo_V_vRDQR6ckQa-137" value="" style="endArrow=none;html=1;rounded=0;strokeWidth=1;" edge="1" parent="wGj9Bdo_V_vRDQR6ckQa-125">
          <mxGeometry width="50" height="50" relative="1" as="geometry">
            <mxPoint x="227" y="132" as="sourcePoint" />
            <mxPoint x="195" y="113" as="targetPoint" />
          </mxGeometry>
        </mxCell>
        <mxCell id="wGj9Bdo_V_vRDQR6ckQa-138" value="" style="ellipse;whiteSpace=wrap;html=1;strokeColor=default;strokeWidth=1;fillColor=none;gradientColor=none;verticalAlign=top;rotation=-60;" vertex="1" parent="wGj9Bdo_V_vRDQR6ckQa-125">
          <mxGeometry x="1" y="-31" width="60" height="20" as="geometry" />
        </mxCell>
        <mxCell id="wGj9Bdo_V_vRDQR6ckQa-139" value="" style="ellipse;whiteSpace=wrap;html=1;strokeColor=default;strokeWidth=1;fillColor=none;gradientColor=none;verticalAlign=top;rotation=-60;" vertex="1" parent="wGj9Bdo_V_vRDQR6ckQa-125">
          <mxGeometry x="10" y="-28" width="37.38" height="12.46" as="geometry" />
        </mxCell>
        <mxCell id="wGj9Bdo_V_vRDQR6ckQa-140" value="" style="group;rotation=54;" vertex="1" connectable="0" parent="1">
          <mxGeometry x="630.0025253169417" y="480" width="266.62" height="78.37" as="geometry" />
        </mxCell>
        <mxCell id="wGj9Bdo_V_vRDQR6ckQa-141" value="" style="shape=cylinder3;whiteSpace=wrap;html=1;boundedLbl=1;backgroundOutline=1;size=15;strokeColor=default;strokeWidth=2;fillColor=#a0522d;verticalAlign=top;rotation=144;fontColor=#ffffff;" vertex="1" parent="wGj9Bdo_V_vRDQR6ckQa-140">
          <mxGeometry x="95" y="-94" width="77.8" height="266.62" as="geometry" />
        </mxCell>
        <mxCell id="wGj9Bdo_V_vRDQR6ckQa-142" value="" style="ellipse;whiteSpace=wrap;html=1;strokeColor=default;strokeWidth=2;fillColor=#E2B685;verticalAlign=top;fontColor=#000000;rotation=54;" vertex="1" parent="wGj9Bdo_V_vRDQR6ckQa-140">
          <mxGeometry x="188" y="95" width="30" height="78.37" as="geometry" />
        </mxCell>
        <mxCell id="wGj9Bdo_V_vRDQR6ckQa-143" value="" style="endArrow=none;html=1;rounded=0;strokeWidth=1;" edge="1" parent="wGj9Bdo_V_vRDQR6ckQa-140">
          <mxGeometry width="50" height="50" relative="1" as="geometry">
            <mxPoint x="75" y="-80" as="sourcePoint" />
            <mxPoint x="104" y="-39" as="targetPoint" />
          </mxGeometry>
        </mxCell>
        <mxCell id="wGj9Bdo_V_vRDQR6ckQa-144" value="" style="endArrow=none;html=1;rounded=0;strokeWidth=1;" edge="1" parent="wGj9Bdo_V_vRDQR6ckQa-140">
          <mxGeometry width="50" height="50" relative="1" as="geometry">
            <mxPoint x="133" y="87" as="sourcePoint" />
            <mxPoint x="174" y="141" as="targetPoint" />
          </mxGeometry>
        </mxCell>
        <mxCell id="wGj9Bdo_V_vRDQR6ckQa-145" value="" style="endArrow=none;html=1;rounded=0;strokeWidth=1;exitX=0.865;exitY=0.654;exitDx=0;exitDy=0;exitPerimeter=0;" edge="1" parent="wGj9Bdo_V_vRDQR6ckQa-140" source="wGj9Bdo_V_vRDQR6ckQa-141">
          <mxGeometry width="50" height="50" relative="1" as="geometry">
            <mxPoint x="96" y="35" as="sourcePoint" />
            <mxPoint x="124" y="74" as="targetPoint" />
          </mxGeometry>
        </mxCell>
        <mxCell id="wGj9Bdo_V_vRDQR6ckQa-146" value="" style="endArrow=none;html=1;rounded=0;strokeWidth=1;" edge="1" parent="wGj9Bdo_V_vRDQR6ckQa-140">
          <mxGeometry width="50" height="50" relative="1" as="geometry">
            <mxPoint x="67" y="-38" as="sourcePoint" />
            <mxPoint x="115" y="25" as="targetPoint" />
          </mxGeometry>
        </mxCell>
        <mxCell id="wGj9Bdo_V_vRDQR6ckQa-147" value="" style="endArrow=none;html=1;rounded=0;strokeWidth=1;" edge="1" parent="wGj9Bdo_V_vRDQR6ckQa-140">
          <mxGeometry width="50" height="50" relative="1" as="geometry">
            <mxPoint x="158" y="92" as="sourcePoint" />
            <mxPoint x="184" y="128" as="targetPoint" />
          </mxGeometry>
        </mxCell>
        <mxCell id="wGj9Bdo_V_vRDQR6ckQa-148" value="" style="endArrow=none;html=1;rounded=0;strokeWidth=1;" edge="1" parent="wGj9Bdo_V_vRDQR6ckQa-140">
          <mxGeometry width="50" height="50" relative="1" as="geometry">
            <mxPoint x="166" y="52" as="sourcePoint" />
            <mxPoint x="207" y="110" as="targetPoint" />
          </mxGeometry>
        </mxCell>
        <mxCell id="wGj9Bdo_V_vRDQR6ckQa-149" value="" style="endArrow=none;html=1;rounded=0;strokeWidth=1;" edge="1" parent="wGj9Bdo_V_vRDQR6ckQa-140">
          <mxGeometry width="50" height="50" relative="1" as="geometry">
            <mxPoint x="137" y="24" as="sourcePoint" />
            <mxPoint x="148" y="40" as="targetPoint" />
          </mxGeometry>
        </mxCell>
        <mxCell id="wGj9Bdo_V_vRDQR6ckQa-150" value="" style="endArrow=none;html=1;rounded=0;strokeWidth=1;entryX=0.608;entryY=0.916;entryDx=0;entryDy=0;entryPerimeter=0;" edge="1" parent="wGj9Bdo_V_vRDQR6ckQa-140" target="wGj9Bdo_V_vRDQR6ckQa-141">
          <mxGeometry width="50" height="50" relative="1" as="geometry">
            <mxPoint x="50" y="-63" as="sourcePoint" />
            <mxPoint x="57" y="-54" as="targetPoint" />
          </mxGeometry>
        </mxCell>
        <mxCell id="wGj9Bdo_V_vRDQR6ckQa-151" value="" style="endArrow=none;html=1;rounded=0;strokeWidth=1;exitX=0.865;exitY=0.654;exitDx=0;exitDy=0;exitPerimeter=0;" edge="1" parent="wGj9Bdo_V_vRDQR6ckQa-140">
          <mxGeometry width="50" height="50" relative="1" as="geometry">
            <mxPoint x="39" y="-41" as="sourcePoint" />
            <mxPoint x="79" y="10" as="targetPoint" />
          </mxGeometry>
        </mxCell>
        <mxCell id="wGj9Bdo_V_vRDQR6ckQa-152" value="" style="endArrow=none;html=1;rounded=0;strokeWidth=1;" edge="1" parent="wGj9Bdo_V_vRDQR6ckQa-140">
          <mxGeometry width="50" height="50" relative="1" as="geometry">
            <mxPoint x="86" y="-84" as="sourcePoint" />
            <mxPoint x="107" y="-54" as="targetPoint" />
          </mxGeometry>
        </mxCell>
        <mxCell id="wGj9Bdo_V_vRDQR6ckQa-153" value="" style="ellipse;whiteSpace=wrap;html=1;strokeColor=default;strokeWidth=1;fillColor=none;gradientColor=none;verticalAlign=top;rotation=144;" vertex="1" parent="wGj9Bdo_V_vRDQR6ckQa-140">
          <mxGeometry x="172" y="125" width="60" height="20" as="geometry" />
        </mxCell>
        <mxCell id="wGj9Bdo_V_vRDQR6ckQa-154" value="" style="ellipse;whiteSpace=wrap;html=1;strokeColor=default;strokeWidth=1;fillColor=none;gradientColor=none;verticalAlign=top;rotation=144;" vertex="1" parent="wGj9Bdo_V_vRDQR6ckQa-140">
          <mxGeometry x="186" y="132" width="37.38" height="12.46" as="geometry" />
        </mxCell>
        <mxCell id="wGj9Bdo_V_vRDQR6ckQa-156" value="&lt;div&gt;CABer&lt;/div&gt;&lt;div&gt;&lt;br&gt;&lt;/div&gt;" style="text;html=1;strokeColor=none;fillColor=none;align=center;verticalAlign=middle;whiteSpace=wrap;rounded=0;rotation=-15;fontSize=200;fontFamily=Norse;" vertex="1" parent="1">
          <mxGeometry x="420" y="160" width="510" height="392.72" as="geometry" />
        </mxCell>
        <mxCell id="wGj9Bdo_V_vRDQR6ckQa-158" value="CATCH" style="text;html=1;strokeColor=none;fillColor=none;align=center;verticalAlign=middle;whiteSpace=wrap;rounded=0;rotation=20;fontSize=200;fontFamily=Norse;" vertex="1" parent="1">
          <mxGeometry x="1040" y="77.82000000000005" width="510" height="362.72" as="geometry" />
        </mxCell>
        <mxCell id="wGj9Bdo_V_vRDQR6ckQa-159" value="" style="group;rotation=-15;" vertex="1" connectable="0" parent="1">
          <mxGeometry x="760.0025253169417" y="760" width="266.62" height="78.37" as="geometry" />
        </mxCell>
        <mxCell id="wGj9Bdo_V_vRDQR6ckQa-160" value="" style="shape=cylinder3;whiteSpace=wrap;html=1;boundedLbl=1;backgroundOutline=1;size=15;strokeColor=default;strokeWidth=2;fillColor=#a0522d;verticalAlign=top;rotation=75;fontColor=#ffffff;" vertex="1" parent="wGj9Bdo_V_vRDQR6ckQa-159">
          <mxGeometry x="95" y="-94" width="77.8" height="266.62" as="geometry" />
        </mxCell>
        <mxCell id="wGj9Bdo_V_vRDQR6ckQa-161" value="" style="ellipse;whiteSpace=wrap;html=1;strokeColor=default;strokeWidth=2;fillColor=#E2B685;verticalAlign=top;fontColor=#000000;rotation=-15;" vertex="1" parent="wGj9Bdo_V_vRDQR6ckQa-159">
          <mxGeometry x="232" y="-31" width="30" height="78.37" as="geometry" />
        </mxCell>
        <mxCell id="wGj9Bdo_V_vRDQR6ckQa-162" value="" style="endArrow=none;html=1;rounded=0;strokeWidth=1;" edge="1" parent="wGj9Bdo_V_vRDQR6ckQa-159">
          <mxGeometry width="50" height="50" relative="1" as="geometry">
            <mxPoint x="1" y="51" as="sourcePoint" />
            <mxPoint x="50" y="38" as="targetPoint" />
          </mxGeometry>
        </mxCell>
        <mxCell id="wGj9Bdo_V_vRDQR6ckQa-163" value="" style="endArrow=none;html=1;rounded=0;strokeWidth=1;" edge="1" parent="wGj9Bdo_V_vRDQR6ckQa-159">
          <mxGeometry width="50" height="50" relative="1" as="geometry">
            <mxPoint x="178" y="56" as="sourcePoint" />
            <mxPoint x="244" y="38" as="targetPoint" />
          </mxGeometry>
        </mxCell>
        <mxCell id="wGj9Bdo_V_vRDQR6ckQa-164" value="" style="endArrow=none;html=1;rounded=0;strokeWidth=1;exitX=0.865;exitY=0.654;exitDx=0;exitDy=0;exitPerimeter=0;" edge="1" parent="wGj9Bdo_V_vRDQR6ckQa-159" source="wGj9Bdo_V_vRDQR6ckQa-160">
          <mxGeometry width="50" height="50" relative="1" as="geometry">
            <mxPoint x="117" y="73" as="sourcePoint" />
            <mxPoint x="164" y="60" as="targetPoint" />
          </mxGeometry>
        </mxCell>
        <mxCell id="wGj9Bdo_V_vRDQR6ckQa-165" value="" style="endArrow=none;html=1;rounded=0;strokeWidth=1;" edge="1" parent="wGj9Bdo_V_vRDQR6ckQa-159">
          <mxGeometry width="50" height="50" relative="1" as="geometry">
            <mxPoint x="38" y="73" as="sourcePoint" />
            <mxPoint x="113" y="52" as="targetPoint" />
          </mxGeometry>
        </mxCell>
        <mxCell id="wGj9Bdo_V_vRDQR6ckQa-166" value="" style="endArrow=none;html=1;rounded=0;strokeWidth=1;" edge="1" parent="wGj9Bdo_V_vRDQR6ckQa-159">
          <mxGeometry width="50" height="50" relative="1" as="geometry">
            <mxPoint x="192" y="34" as="sourcePoint" />
            <mxPoint x="234" y="23" as="targetPoint" />
          </mxGeometry>
        </mxCell>
        <mxCell id="wGj9Bdo_V_vRDQR6ckQa-167" value="" style="endArrow=none;html=1;rounded=0;strokeWidth=1;" edge="1" parent="wGj9Bdo_V_vRDQR6ckQa-159">
          <mxGeometry width="50" height="50" relative="1" as="geometry">
            <mxPoint x="156" y="14" as="sourcePoint" />
            <mxPoint x="225" y="-4" as="targetPoint" />
          </mxGeometry>
        </mxCell>
        <mxCell id="wGj9Bdo_V_vRDQR6ckQa-168" value="" style="endArrow=none;html=1;rounded=0;strokeWidth=1;" edge="1" parent="wGj9Bdo_V_vRDQR6ckQa-159">
          <mxGeometry width="50" height="50" relative="1" as="geometry">
            <mxPoint x="120" y="30" as="sourcePoint" />
            <mxPoint x="139" y="24" as="targetPoint" />
          </mxGeometry>
        </mxCell>
        <mxCell id="wGj9Bdo_V_vRDQR6ckQa-169" value="" style="endArrow=none;html=1;rounded=0;strokeWidth=1;entryX=0.608;entryY=0.916;entryDx=0;entryDy=0;entryPerimeter=0;" edge="1" parent="wGj9Bdo_V_vRDQR6ckQa-159" target="wGj9Bdo_V_vRDQR6ckQa-160">
          <mxGeometry width="50" height="50" relative="1" as="geometry">
            <mxPoint x="9" y="80" as="sourcePoint" />
            <mxPoint x="19" y="77" as="targetPoint" />
          </mxGeometry>
        </mxCell>
        <mxCell id="wGj9Bdo_V_vRDQR6ckQa-170" value="" style="endArrow=none;html=1;rounded=0;strokeWidth=1;exitX=0.865;exitY=0.654;exitDx=0;exitDy=0;exitPerimeter=0;" edge="1" parent="wGj9Bdo_V_vRDQR6ckQa-159">
          <mxGeometry width="50" height="50" relative="1" as="geometry">
            <mxPoint x="25" y="98" as="sourcePoint" />
            <mxPoint x="86" y="81" as="targetPoint" />
          </mxGeometry>
        </mxCell>
        <mxCell id="wGj9Bdo_V_vRDQR6ckQa-171" value="" style="endArrow=none;html=1;rounded=0;strokeWidth=1;" edge="1" parent="wGj9Bdo_V_vRDQR6ckQa-159">
          <mxGeometry width="50" height="50" relative="1" as="geometry">
            <mxPoint x="2" y="39" as="sourcePoint" />
            <mxPoint x="37" y="30" as="targetPoint" />
          </mxGeometry>
        </mxCell>
        <mxCell id="wGj9Bdo_V_vRDQR6ckQa-172" value="" style="ellipse;whiteSpace=wrap;html=1;strokeColor=default;strokeWidth=1;fillColor=none;gradientColor=none;verticalAlign=top;rotation=75;" vertex="1" parent="wGj9Bdo_V_vRDQR6ckQa-159">
          <mxGeometry x="218" y="-1" width="60" height="20" as="geometry" />
        </mxCell>
        <mxCell id="wGj9Bdo_V_vRDQR6ckQa-173" value="" style="ellipse;whiteSpace=wrap;html=1;strokeColor=default;strokeWidth=1;fillColor=none;gradientColor=none;verticalAlign=top;rotation=75;" vertex="1" parent="wGj9Bdo_V_vRDQR6ckQa-159">
          <mxGeometry x="232" y="2" width="37.38" height="12.46" as="geometry" />
        </mxCell>
        <mxCell id="wGj9Bdo_V_vRDQR6ckQa-189" value="" style="group;rotation=-15;" vertex="1" connectable="0" parent="1">
          <mxGeometry x="110.00252531694173" y="1050" width="266.62" height="78.37" as="geometry" />
        </mxCell>
        <mxCell id="wGj9Bdo_V_vRDQR6ckQa-190" value="" style="shape=cylinder3;whiteSpace=wrap;html=1;boundedLbl=1;backgroundOutline=1;size=15;strokeColor=default;strokeWidth=2;fillColor=#a0522d;verticalAlign=top;rotation=75;fontColor=#ffffff;" vertex="1" parent="wGj9Bdo_V_vRDQR6ckQa-189">
          <mxGeometry x="95" y="-94" width="77.8" height="266.62" as="geometry" />
        </mxCell>
        <mxCell id="wGj9Bdo_V_vRDQR6ckQa-191" value="" style="ellipse;whiteSpace=wrap;html=1;strokeColor=default;strokeWidth=2;fillColor=#E2B685;verticalAlign=top;fontColor=#000000;rotation=-15;" vertex="1" parent="wGj9Bdo_V_vRDQR6ckQa-189">
          <mxGeometry x="232" y="-31" width="30" height="78.37" as="geometry" />
        </mxCell>
        <mxCell id="wGj9Bdo_V_vRDQR6ckQa-192" value="" style="endArrow=none;html=1;rounded=0;strokeWidth=1;" edge="1" parent="wGj9Bdo_V_vRDQR6ckQa-189">
          <mxGeometry width="50" height="50" relative="1" as="geometry">
            <mxPoint x="1" y="51" as="sourcePoint" />
            <mxPoint x="50" y="38" as="targetPoint" />
          </mxGeometry>
        </mxCell>
        <mxCell id="wGj9Bdo_V_vRDQR6ckQa-193" value="" style="endArrow=none;html=1;rounded=0;strokeWidth=1;" edge="1" parent="wGj9Bdo_V_vRDQR6ckQa-189">
          <mxGeometry width="50" height="50" relative="1" as="geometry">
            <mxPoint x="178" y="56" as="sourcePoint" />
            <mxPoint x="244" y="38" as="targetPoint" />
          </mxGeometry>
        </mxCell>
        <mxCell id="wGj9Bdo_V_vRDQR6ckQa-194" value="" style="endArrow=none;html=1;rounded=0;strokeWidth=1;exitX=0.865;exitY=0.654;exitDx=0;exitDy=0;exitPerimeter=0;" edge="1" parent="wGj9Bdo_V_vRDQR6ckQa-189" source="wGj9Bdo_V_vRDQR6ckQa-190">
          <mxGeometry width="50" height="50" relative="1" as="geometry">
            <mxPoint x="117" y="73" as="sourcePoint" />
            <mxPoint x="164" y="60" as="targetPoint" />
          </mxGeometry>
        </mxCell>
        <mxCell id="wGj9Bdo_V_vRDQR6ckQa-195" value="" style="endArrow=none;html=1;rounded=0;strokeWidth=1;" edge="1" parent="wGj9Bdo_V_vRDQR6ckQa-189">
          <mxGeometry width="50" height="50" relative="1" as="geometry">
            <mxPoint x="38" y="73" as="sourcePoint" />
            <mxPoint x="113" y="52" as="targetPoint" />
          </mxGeometry>
        </mxCell>
        <mxCell id="wGj9Bdo_V_vRDQR6ckQa-196" value="" style="endArrow=none;html=1;rounded=0;strokeWidth=1;" edge="1" parent="wGj9Bdo_V_vRDQR6ckQa-189">
          <mxGeometry width="50" height="50" relative="1" as="geometry">
            <mxPoint x="192" y="34" as="sourcePoint" />
            <mxPoint x="234" y="23" as="targetPoint" />
          </mxGeometry>
        </mxCell>
        <mxCell id="wGj9Bdo_V_vRDQR6ckQa-197" value="" style="endArrow=none;html=1;rounded=0;strokeWidth=1;" edge="1" parent="wGj9Bdo_V_vRDQR6ckQa-189">
          <mxGeometry width="50" height="50" relative="1" as="geometry">
            <mxPoint x="156" y="14" as="sourcePoint" />
            <mxPoint x="225" y="-4" as="targetPoint" />
          </mxGeometry>
        </mxCell>
        <mxCell id="wGj9Bdo_V_vRDQR6ckQa-198" value="" style="endArrow=none;html=1;rounded=0;strokeWidth=1;" edge="1" parent="wGj9Bdo_V_vRDQR6ckQa-189">
          <mxGeometry width="50" height="50" relative="1" as="geometry">
            <mxPoint x="120" y="30" as="sourcePoint" />
            <mxPoint x="139" y="24" as="targetPoint" />
          </mxGeometry>
        </mxCell>
        <mxCell id="wGj9Bdo_V_vRDQR6ckQa-199" value="" style="endArrow=none;html=1;rounded=0;strokeWidth=1;entryX=0.608;entryY=0.916;entryDx=0;entryDy=0;entryPerimeter=0;" edge="1" parent="wGj9Bdo_V_vRDQR6ckQa-189" target="wGj9Bdo_V_vRDQR6ckQa-190">
          <mxGeometry width="50" height="50" relative="1" as="geometry">
            <mxPoint x="9" y="80" as="sourcePoint" />
            <mxPoint x="19" y="77" as="targetPoint" />
          </mxGeometry>
        </mxCell>
        <mxCell id="wGj9Bdo_V_vRDQR6ckQa-200" value="" style="endArrow=none;html=1;rounded=0;strokeWidth=1;exitX=0.865;exitY=0.654;exitDx=0;exitDy=0;exitPerimeter=0;" edge="1" parent="wGj9Bdo_V_vRDQR6ckQa-189">
          <mxGeometry width="50" height="50" relative="1" as="geometry">
            <mxPoint x="25" y="98" as="sourcePoint" />
            <mxPoint x="86" y="81" as="targetPoint" />
          </mxGeometry>
        </mxCell>
        <mxCell id="wGj9Bdo_V_vRDQR6ckQa-201" value="" style="endArrow=none;html=1;rounded=0;strokeWidth=1;" edge="1" parent="wGj9Bdo_V_vRDQR6ckQa-189">
          <mxGeometry width="50" height="50" relative="1" as="geometry">
            <mxPoint x="2" y="39" as="sourcePoint" />
            <mxPoint x="37" y="30" as="targetPoint" />
          </mxGeometry>
        </mxCell>
        <mxCell id="wGj9Bdo_V_vRDQR6ckQa-202" value="" style="ellipse;whiteSpace=wrap;html=1;strokeColor=default;strokeWidth=1;fillColor=none;gradientColor=none;verticalAlign=top;rotation=75;" vertex="1" parent="wGj9Bdo_V_vRDQR6ckQa-189">
          <mxGeometry x="218" y="-1" width="60" height="20" as="geometry" />
        </mxCell>
        <mxCell id="wGj9Bdo_V_vRDQR6ckQa-203" value="" style="ellipse;whiteSpace=wrap;html=1;strokeColor=default;strokeWidth=1;fillColor=none;gradientColor=none;verticalAlign=top;rotation=75;" vertex="1" parent="wGj9Bdo_V_vRDQR6ckQa-189">
          <mxGeometry x="232" y="2" width="37.38" height="12.46" as="geometry" />
        </mxCell>
        <mxCell id="wGj9Bdo_V_vRDQR6ckQa-204" value="" style="group;rotation=-132;" vertex="1" connectable="0" parent="1">
          <mxGeometry x="1040.0025253169417" y="990" width="266.62" height="78.37" as="geometry" />
        </mxCell>
        <mxCell id="wGj9Bdo_V_vRDQR6ckQa-205" value="" style="shape=cylinder3;whiteSpace=wrap;html=1;boundedLbl=1;backgroundOutline=1;size=15;strokeColor=default;strokeWidth=2;fillColor=#a0522d;verticalAlign=top;rotation=-42;fontColor=#ffffff;" vertex="1" parent="wGj9Bdo_V_vRDQR6ckQa-204">
          <mxGeometry x="94" y="-95" width="77.8" height="266.62" as="geometry" />
        </mxCell>
        <mxCell id="wGj9Bdo_V_vRDQR6ckQa-206" value="" style="ellipse;whiteSpace=wrap;html=1;strokeColor=default;strokeWidth=2;fillColor=#E2B685;verticalAlign=top;fontColor=#000000;rotation=-132;" vertex="1" parent="wGj9Bdo_V_vRDQR6ckQa-204">
          <mxGeometry x="39" y="-87" width="30" height="78.37" as="geometry" />
        </mxCell>
        <mxCell id="wGj9Bdo_V_vRDQR6ckQa-207" value="" style="endArrow=none;html=1;rounded=0;strokeWidth=1;" edge="1" parent="wGj9Bdo_V_vRDQR6ckQa-204">
          <mxGeometry width="50" height="50" relative="1" as="geometry">
            <mxPoint x="204" y="152" as="sourcePoint" />
            <mxPoint x="170" y="114" as="targetPoint" />
          </mxGeometry>
        </mxCell>
        <mxCell id="wGj9Bdo_V_vRDQR6ckQa-208" value="" style="endArrow=none;html=1;rounded=0;strokeWidth=1;" edge="1" parent="wGj9Bdo_V_vRDQR6ckQa-204">
          <mxGeometry width="50" height="50" relative="1" as="geometry">
            <mxPoint x="128" y="-8" as="sourcePoint" />
            <mxPoint x="82" y="-59" as="targetPoint" />
          </mxGeometry>
        </mxCell>
        <mxCell id="wGj9Bdo_V_vRDQR6ckQa-209" value="" style="endArrow=none;html=1;rounded=0;strokeWidth=1;exitX=0.865;exitY=0.654;exitDx=0;exitDy=0;exitPerimeter=0;" edge="1" parent="wGj9Bdo_V_vRDQR6ckQa-204" source="wGj9Bdo_V_vRDQR6ckQa-205">
          <mxGeometry width="50" height="50" relative="1" as="geometry">
            <mxPoint x="171" y="38" as="sourcePoint" />
            <mxPoint x="138" y="2" as="targetPoint" />
          </mxGeometry>
        </mxCell>
        <mxCell id="wGj9Bdo_V_vRDQR6ckQa-210" value="" style="endArrow=none;html=1;rounded=0;strokeWidth=1;" edge="1" parent="wGj9Bdo_V_vRDQR6ckQa-204">
          <mxGeometry width="50" height="50" relative="1" as="geometry">
            <mxPoint x="207" y="109" as="sourcePoint" />
            <mxPoint x="154" y="51" as="targetPoint" />
          </mxGeometry>
        </mxCell>
        <mxCell id="wGj9Bdo_V_vRDQR6ckQa-211" value="" style="endArrow=none;html=1;rounded=0;strokeWidth=1;" edge="1" parent="wGj9Bdo_V_vRDQR6ckQa-204">
          <mxGeometry width="50" height="50" relative="1" as="geometry">
            <mxPoint x="102" y="-11" as="sourcePoint" />
            <mxPoint x="73" y="-43" as="targetPoint" />
          </mxGeometry>
        </mxCell>
        <mxCell id="wGj9Bdo_V_vRDQR6ckQa-212" value="" style="endArrow=none;html=1;rounded=0;strokeWidth=1;" edge="1" parent="wGj9Bdo_V_vRDQR6ckQa-204">
          <mxGeometry width="50" height="50" relative="1" as="geometry">
            <mxPoint x="101" y="30" as="sourcePoint" />
            <mxPoint x="53" y="-23" as="targetPoint" />
          </mxGeometry>
        </mxCell>
        <mxCell id="wGj9Bdo_V_vRDQR6ckQa-213" value="" style="endArrow=none;html=1;rounded=0;strokeWidth=1;" edge="1" parent="wGj9Bdo_V_vRDQR6ckQa-204">
          <mxGeometry width="50" height="50" relative="1" as="geometry">
            <mxPoint x="131" y="55" as="sourcePoint" />
            <mxPoint x="117" y="41" as="targetPoint" />
          </mxGeometry>
        </mxCell>
        <mxCell id="wGj9Bdo_V_vRDQR6ckQa-214" value="" style="endArrow=none;html=1;rounded=0;strokeWidth=1;entryX=0.608;entryY=0.916;entryDx=0;entryDy=0;entryPerimeter=0;" edge="1" parent="wGj9Bdo_V_vRDQR6ckQa-204" target="wGj9Bdo_V_vRDQR6ckQa-205">
          <mxGeometry width="50" height="50" relative="1" as="geometry">
            <mxPoint x="226" y="131" as="sourcePoint" />
            <mxPoint x="219" y="124" as="targetPoint" />
          </mxGeometry>
        </mxCell>
        <mxCell id="wGj9Bdo_V_vRDQR6ckQa-215" value="" style="endArrow=none;html=1;rounded=0;strokeWidth=1;exitX=0.865;exitY=0.654;exitDx=0;exitDy=0;exitPerimeter=0;" edge="1" parent="wGj9Bdo_V_vRDQR6ckQa-204">
          <mxGeometry width="50" height="50" relative="1" as="geometry">
            <mxPoint x="235" y="109" as="sourcePoint" />
            <mxPoint x="192" y="62" as="targetPoint" />
          </mxGeometry>
        </mxCell>
        <mxCell id="wGj9Bdo_V_vRDQR6ckQa-216" value="" style="endArrow=none;html=1;rounded=0;strokeWidth=1;" edge="1" parent="wGj9Bdo_V_vRDQR6ckQa-204">
          <mxGeometry width="50" height="50" relative="1" as="geometry">
            <mxPoint x="193" y="156" as="sourcePoint" />
            <mxPoint x="169" y="129" as="targetPoint" />
          </mxGeometry>
        </mxCell>
        <mxCell id="wGj9Bdo_V_vRDQR6ckQa-217" value="" style="ellipse;whiteSpace=wrap;html=1;strokeColor=default;strokeWidth=1;fillColor=none;gradientColor=none;verticalAlign=top;rotation=-42;" vertex="1" parent="wGj9Bdo_V_vRDQR6ckQa-204">
          <mxGeometry x="24" y="-59" width="60" height="20" as="geometry" />
        </mxCell>
        <mxCell id="wGj9Bdo_V_vRDQR6ckQa-218" value="" style="ellipse;whiteSpace=wrap;html=1;strokeColor=default;strokeWidth=1;fillColor=none;gradientColor=none;verticalAlign=top;rotation=-42;" vertex="1" parent="wGj9Bdo_V_vRDQR6ckQa-204">
          <mxGeometry x="34" y="-58" width="37.38" height="12.46" as="geometry" />
        </mxCell>
      </root>
    </mxGraphModel>
  </diagram>
</mxfile>
